<svg id="Layer_1" xmlns="http://www.w3.org/2000/svg" viewBox="0 0 33.2 28.5">
  <style>
    .st0{opacity:0;} .st1{fill:#FFFFFF;}
  </style>
  <g class="st0">
    <path class="st1" d="M-56.3 37.7V35h.3v2.7h-.3z"/>
    <path class="st1" d="M-55.8 37.8h-.6v-3h.6v3zm-.4-.2V35v2.6z"/>
  </g>
  <g class="st0">
    <path class="st1" d="M-50.8 37.8c-.4 0-.8 0-1-.4-.3-.3-.5-.6-.5-1 0-.5.2-.8.5-1 .2-.4.6-.5 1-.5h.7l-1-1h-1l-1 1 1-.3v.5h-1z"/>
    <path class="st1" d="M-50.8 38c-.5 0-.8-.2-1-.5-.4-.3-.6-.7-.6-1 0-.6.2-1 .5-1.3 1-.3 1-.4 2-.4s1 0 1 .2v.7-.4.3c-.2.2-.3.5-.3.8v.7c0 1 .3 1 .5 1h1v1h-.6zm0-3c-.4 0-.7 0-1 .4-.2.3-.3.6-.3 1v1l1 .3v-.2h-1c-1 0-1 0-1-.3-1-.2-1-.5-1-.8v-1c0-.2 0-.3 1-.3v1-1h-.8z"/>
  </g>
  <g class="st0">
    <path class="st1" d="M-43.7 36.3c0 .5-.2.8-.5 1-.2.4-.6.5-1 .5-.3 0-.7 0-1-.4-.2-.3-.4-.6-.4-1 0-.5.2-.8.5-1V35h1v1zm-.4 0c0-.3-1-.5-1-.7 0-.3-1-.4-1-.4-1 0-1 0-1 .4l-1 .7v.8c0 1 .3 1 1 1h1z"/>
    <path class="st1" d="M-45.2 38c-.4 0-.7-.2-1-.5-.3-.3-.5-.7-.5-1.2 0-.4.2-.8.5-1 .3-.4.6-.5 1-.5.5 0 .8 0 1 .4.4.3.6.7.6 1 0 .6-.2 1-.5 1.3-1 .3-1 .4-2 .4zm0-3c-.3 0-.6 0-1 .4 0 .3-.3.6-.3 1 0 .3.2.6.4 1v.3l1-.4v-1c0-.3 0-.6-1-1l-1-.3zm0 2.6c-.3 0-.6 0-.8-.4-.2-.2-.3-.5-.3-1 0-.2 0-.5.3-.7.2-.3.5-.4.8-.4.4 0 .7 1 1 1l.2 1c0 1 0 1-.3 1l-1 1zm0-2.3c-.2 0-.5 0-.6.3-.2.2-.3.5-.3.7V38v-1h-1z"/>
  </g>
  <g class="st0">
    <path class="st1" d="M-39.8 35.7v2h-.3v-3l2 2.3v-2 3l-2-2.3z"/>
    <path class="st1" d="M-37.6 38l-2-2v2h-.6v-3.5l2 2.2v-2h.6V38zm-2.4-.3v-2.3l2.2 2.2V35h-.2v2.3l-2-2.2v3z"/>
  </g>
  <g class="st0">
    <path class="st1" d="M-34 37.7V35h.4v2.7h-.3z"/>
    <path class="st1" d="M-33.5 37.8h-.5v-3h.5v3zm-.3-.2V35v2.6z"/>
  </g>
  <g class="st0">
    <path class="st1" d="M-28.5 37.8c-.3 0-.7 0-1-.4-.2-.3-.4-.6-.4-1 0-.5 1-.8 1-1 0-.4 1-.5 1-.5h1l-1-1v1h1s1 0 1-.4v.5h-.3z"/>
    <path class="st1" d="M-28.5 38c-.4 0-.7-.2-1-.5-.3-.3-.5-.7-.5-1 0-.6.2-1 .5-1.3.3-.3.6-.4 1-.4.3 0 .6 0 .8.2v.7c-.3-.3-.5-.4-.8-.4-.2 0-.5 0-.6.3-1 .2-1 .5-1 .8V39h-1zm0-3c-.3 0-.6 0-1 .4 0 .3-.3.6-.3 1 0 .3.2.6.4 1 .3.2.6.3 1 .3.2 0 .4 0 .5-.2l-1-.3v-.8c0-.4 0-.7 1-1 0-.2 1-.3 1-.3l1 1v-1z"/>
  </g>
  <g class="st0">
    <path class="st1" d="M-54 41.8l-.7-2-.8 2-1-3h.3l.7 2 .8-2 .8 2 1-2h1l-1 3z"/>
    <path class="st1" d="M-55.5 42l-1.2-3.2h.6v1.8l1-2 1 2v-1.8l-1 3.2-1-2-1 2zm.8-2.6l.8 2 1-2.4-1 2.2v-2 2l-1-2.2 1 2.5 1-2z"/>
  </g>
  <g class="st0">
    <path class="st1" d="M-46.3 40.3c0 .4-.2.8-.4 1-.3.3-.6.4-1 .4s-.8 0-1-.4c-.3-.2-.5-.6-.5-1s.2-.7.5-1c.2-.3.6-.4 1-.4h1c.2 0 .4 0 .4 1zm-.4 0c0-.3 0-.6-.3-.8-.2-.2-.4-.3-.7-.3-.3 0-.6 0-.8.3-.2.2-.3.5-.3.8 0 .3 0 .6.3.8.2 1 .5 1 .8 1h1z"/>
    <path class="st1" d="M-47.7 42c-.5 0-.8-.3-1-.6-.4-.3-.6-.7-.6-1 0-.5.2-1 .5-1.2.3-.3.6-.5 1-.5.5 0 .8.2 1 .5.4.3.6.7.6 1 0 .5-.2 1-.5 1.2-.3.3-.6.5-1 .5zm0-3c-.4 0-.7 0-1 .4-.2.2-.3.5-.3 1 0 .3 0 .6.3 1l1 .2c.3 0 .6 0 1-.3 0-.3.3-.6.3-1s-.2-.7-.4-1c-.3-.2-.6-.3-1-.3zm0 2.5c-.4 0-.6 0-1-.3l-.2-1 1-.8c0-.2 1-.3 1-.3l1 1 1 1v2zm0-2.2c-.3 0-.5 0-.7.3-.2.2-.3.4-.3.7 0 .3 0 .5.3.7.2.2.4.3.7.3.2 0 .4 0 .6-.3v-.7c0-.3 0-.5-1-.7 0-.2-1-.3-1-.3z"/>
  </g>
  <g class="st0">
    <path class="st1" d="M-40 41.7l-.3-2-.8 2-1-2-1 2h-1v-3l1 2.3.2-2.2.6 3h-.4z"/>
    <path class="st1" d="M-41 42l-1-1.8v1.6h-.7l.7-3.4 1 2.3 1-2.3.5 3.4h-.6l-1-1.6-1 1.8zm1-.4h.3l-.5-2.4-1 2-.8-2-.4 2.4.5-2 1 2 1-2.2 1 2.2z"/>
  </g>
  <g class="st0">
    <path class="st1" d="M-35.7 41.7V39h1.5v.2h-1v.8h1v.3h-1v1h1v.4h-1.5z"/>
    <path class="st1" d="M-34 41.8h-2v-3h1.7v.5h-1.2v.6h1-1v1h1zm-1.6-.2h1.3-1V40h1-1v-1h1-1.3v2.6z"/>
  </g>
  <g class="st0">
    <path class="st1" d="M-29.8 39.6v2h-.4V39l2 2.2v-2h.4V42l-2-2.2z"/>
    <path class="st1" d="M-27.7 42l-2-2v1.8h-.6v-3.3l2 2.2v-2h.6V42zm-2.4-.4v-2.3l2 2.2V39v2.2l-2-2v2.4z"/>
  </g>
  <g class="st0">
    <path class="st1" d="M-54.4 45.6l-.3-.7h-2l1.4-3 1.3 3h-.4zm-1-2l-.4 1h1l-.5-1z"/>
    <path class="st1" d="M-53.8 45.8h-.6l-.3-.7h-1l-.4 1h-1l1-3 1 3zm-.5-.3l-1-2.5-1 2.5.3-.7h1.4l.3.7zm-.3-.8H-56l.7-1.5.7 1.5zm-1-.2h.6l-.3-.7-.3.7z"/>
  </g>
  <g class="st0">
    <path class="st1" d="M-52 45.6V43h.5v2.3h.8v.3H-52z"/>
    <path class="st1" d="M-50.6 45.8H-52v-3h.6V45h.8v.6zm-1.2-.3h1-.8V43h-.2v2.5z"/>
  </g>
  <g class="st0">
    <path class="st1" d="M-48.6 45.6V43h.3v2.3h1v.3h-1.3z"/>
    <path class="st1" d="M-47.3 45.8h-1.4v-3h.6v2.8zm-1.2-.3h1-1V43v2.5z"/>
  </g>
  <g class="st0">
    <path class="st1" d="M-45.3 45.6V43h.3v2.6h-.3z"/>
    <path class="st1" d="M-45 45.8h-.4v-3h.5v3zm-.2-.3V43v2.5z"/>
  </g>
  <g class="st0">
    <path class="st1" d="M-40.7 45.6l-.3-.7h-2l2-3 1.2 3h-.4zm-1-2l-.4 1h1l-1-1z"/>
    <path class="st1" d="M-40 45.8h-.7l-.3-.7h-1l-.4 1h-.7l1-3 1 4zm-.6-.3l-1-2.5-1 2.5.3-.7h1.4l1 .7zm-.3-.8h-1l1-1.5 1 1.5zm-1-.2h1v-.7.7z"/>
  </g>
  <g class="st0">
    <path class="st1" d="M-38 43.6v2h-.2v-3l2 2.3v-2h.3v2l-2-3z"/>
    <path class="st1" d="M-35.7 46l-2-2v1.8h-.6v-3.4l2 2.2v-1.8h.6V46zm-2.4-.4v-2.3l2 2.2V43v2.2l-2-2.2v2.6z"/>
  </g>
  <g class="st0">
    <path class="st1" d="M-32.2 45.7c-.4 0-.7 0-1-.4-.3-.3-.4-.6-.4-1s0-.8.4-1c.3-.4.6-.5 1-.5.3 0 .5 0 .7.2v.4c-.2-.2-.5-.3-.7-.3-.3 0-.6 1-.8 1-.2 0-.3 1-.3 1 0 1 0 1 .3 1 .2 1 .5 1 .8 1h.7v1h-.7z"/>
    <path class="st1" d="M-32.2 45.8c-.4 0-.8 0-1-.4-.4-.3-.5-.7-.5-1 0-.6 0-1 .4-1.3h2v1h-1c-.2 0-.4 0-.6 1v1c0 1 0 1 1 1l1 1c1 0 1 0 1-.3v.7l-1 .3zm0-3c-.4 0-.7.2-1 .5-.2.3-.3.6-.3 1 0 .3 0 .6.4 1v.3-.2h-1c-1 0-1 0-1-.3v-1h1v1h-.7z"/>
  </g>
  <g class="st0">
    <path class="st1" d="M-29.2 45.6V43h1.4v.2h-1v.8h1v.3h-1v1h1v.3h-1.4z"/>
    <path class="st1" d="M-27.6 45.8h-1.7v-3h1.7v.5h-1.2v.5h1v.6h-1v.8h1.2v.6zm-1.5-.3h1-1V44h1-1v-1h1-1v2.5z"/>
  </g>
  <path class="st1" d="M31.6 18.3v-.6h-.2c0 .2-.2.3-.5.4h-1l-1 1h-1c0-2-1-3-1-5s0-3-1-5V7l-.8-.2-.7-.2h-1V7h-2v.8c-1 2.8-1.5 5.6-1.5 8.4v3l-1 .7 1 1v3l-1-3c0-2-1-3-1-4l-1-4V9c0-.2-.3-.4-.5-.5L16 8h-1c0 .6-.2.7-.3 1-1 1-1 2-1.5 3l-.6 4-1 3.6v4c-1-1-1.6-2-2-3.4v-3l-.4-4v-3c0-.2 0-.5-.3-1H7c-.3 0-.5 0-.7.3-.4 0-.6.3-.6.5s0 .2-.3.4L5 11c-1 2-1.2 3.5-2 5-.3 1.7-1 3.3-1 5v1l-.3 2.3c-.3.8-.4 1.6-.4 2.4 0 .4 0 .7.2 1 0 .2.4.3 1 .3h1.2v-2L6 16l.4 3.7c.2 1.3.5 2.5 1 3.6.2 1 .7 2 1.4 2.6.6 0 1.4 1 2.3 1 1 0 1-1 2-1l1-2 1-3 1-3 1-3 .3-2v2l.6 2 1 3 1 2 1.3 2c.2 1 1 1 1.3 1h1l.8-.8v-2c0-.5 0-1 .6-1.6h2c0 1 0 1.7.3 2.4 0 1 .3 1 .7 2 .2.3.6 1 1.2 1h1l.6-.7 1-.4-.4-1c-.3-.6-.4-1-.6-2v-3h1l1-.6.6-1v-1zM24 14.7c0-.5 0-1 .2-1.8l.3-3 .4-2v10h-2v-4zm1.8 7.5h-1.3l-1-.2v-1.2l1.8-.3h.5v1.7zM24 3.4c.2-.5.3-1 .6-1.4.2-.5.5-.8 1-1.2.4-.3.8-.4 1.3-.4s1 .2 1 .5v1s0 1-1 2c-1 0-1 1-2 1h-1c-1 0-1-1-1-1V3zm-9.7 2.3c0-.5.3-1 .5-1.4.3-.4.6-.8 1-1 .4-.4 1-.6 1.3-.6 1 0 2 .2 2 .6V7c0 .4-1 1-2 1h-2V5.5zM7 4.3c.4-.6 1-1 2-1h1.4c.4.2.6.4.7 1V7l-1 1c0 .4-1 .5-1 .5-1 0-1-.2-1-.5V6.4c0-.8 0-1.5 1-2z"/>
</svg>
